# xmcd CD database file
#
# Track frame offsets:
#	150
#	15096
#	23479
#	37171
#	51695
#	65586
#	77550
#	89988
#	103053
#	116545
#	129414
#	143644
#	157169
#	169438
#	181741
#	195368
#	208790
#	220562
#	233777
#	244764
#
# Disc length: 3488 seconds
#
# Revision: 0
# Processed by: cddbd v1.5.2PL0 Copyright (c) Steve Scherf et al.
# Submitted via: CDex 1.51
#
DISCID=170d9e14
DTITLE=Various Artist - Ladies of Jazz
DYEAR=2002
DGENRE=Jazz
TTITLE0=Black Coffee/Sarah Vaughan
TTITLE1=Pennies From Heaven/Della Reese
TTITLE2=On The Sunny Side Of The Street/Billie Holiday
TTITLE3=It Might As Well Be Spring/Sarah Vaughan
TTITLE4=I'm Glad There Is You/Peggy Lee
TTITLE5=So Long/Ruth Brown
TTITLE6=Can't Help Lovin' Dat Man/Ella Fitzgerald
TTITLE7=You Go To My Head/Billie Holiday
TTITLE8=Stairway To The Stars/Dinah Washington
TTITLE9=Love Me Or Leave Me/Kay Starr
TTITLE10=What Do You Know About Love/Della Reese
TTITLE11=There Is No Greater Love/Billie Holiday
TTITLE12=Honeysuckle Rose/Kay Starr
TTITLE13=You Better Go Now/Billie Holiday
TTITLE14=Imagination/Ella Fitzgerald
TTITLE15=The Lady Is A Tramp/Lena Horne
TTITLE16=Sentimental Journey/Ruth Brown
TTITLE17=Mad About The Boy/Lena Horne
TTITLE18=Devoting My Time To You/Ella Fitzgerald
TTITLE19=Sophisticated Lady/Sarah Vaughan
EXTD=YEAR: 2002
EXTT0=
EXTT1=
EXTT2=
EXTT3=
EXTT4=
EXTT5=
EXTT6=
EXTT7=
EXTT8=
EXTT9=
EXTT10=
EXTT11=
EXTT12=
EXTT13=
EXTT14=
EXTT15=
EXTT16=
EXTT17=
EXTT18=
EXTT19=
PLAYORDER=
